<svg xmlns="http://www.w3.org/2000/svg" width="122" height="115" fill="none" viewBox="0 0 122 115"><g filter="url(#filter0_d)"><path fill="#1D9393" stroke="#1D9393" stroke-width="1.058" d="M62.5737 23.0807C74.6945 34.0482 86.461 51.0917 89.7668 59.5362C82.8566 62.255 75.4174 73.3883 72.5381 77.3015C48.0152 67.248 39.6575 57.7805 28.8133 46.9174C18.4346 36.5208 8.82719 13.6688 8.82719 1.76346C27.0626 -0.580542 46.2598 8.31904 62.5737 23.0807Z"/><ellipse fill="#fff" rx="12.419" ry="11.993" transform="matrix(-1 0 0 1 40.402 28.708)"/><path fill="#CB0D05" stroke="#CB0D05" stroke-width="1.058" d="M16.7252 28.7073C16.8632 22.7096 31.3896 11.6582 38.6355 6.88219C29.3243 2.03739 14.7651 0.653061 8.76227 1.7346C8.62425 8.26546 13.1972 22.8891 16.7252 28.7073Z"/><path fill="#062665" stroke="#062665" stroke-width="1.058" d="M57.7617 84.113V69.9923L38.2653 56.3945V67.3773L57.7617 84.113zM79.6945 26.328H66.9678L81.3193 44.3711H99.7325L79.6945 26.328z"/><path fill="#FE7805" stroke="#FE7805" stroke-width="1.058" d="M95.9418 72.0362L113.813 93.2694C109.698 89.0853 88.5358 74.1113 87.0059 70.4673 84.8983 65.4473 90.5676 65.9503 95.9418 72.0362zM90.9223 78.0518L108.794 99.285C104.678 95.1009 83.5163 80.127 81.9864 76.4829 79.8788 71.4629 85.5481 71.9659 90.9223 78.0518zM74.8287 73.8974C77.1738 69.9801 84.29 62.8152 87.9033 60.6016 87.9033 66.3421 81.9199 67.889 81.9199 68.856 81.9199 70.0567 72.5655 77.6777 74.8287 73.8974z"/><ellipse fill="#000" rx="8.099" ry="7.822" transform="matrix(-1 0 0 1 40.403 28.702)"/><ellipse fill="#fff" rx="9.715" ry="9.381" transform="matrix(-1 0 0 1 57.253 47.02)"/><ellipse fill="#000" rx="6.336" ry="6.118" transform="matrix(-1 0 0 1 57.253 47.019)"/><ellipse fill="#fff" rx="7.577" ry="7.317" transform="matrix(-1 0 0 1 69.964 59.731)"/><ellipse fill="#000" rx="4.942" ry="4.772" transform="matrix(-1 0 0 1 69.963 59.733)"/></g><defs><filter id="filter0_d" width="120.584" height="113.394" x=".932" y=".859" color-interpolation-filters="sRGB" filterUnits="userSpaceOnUse"><feFlood flood-opacity="0" result="BackgroundImageFix"/><feColorMatrix in="SourceAlpha" values="0 0 0 0 0 0 0 0 0 0 0 0 0 0 0 0 0 0 127 0"/><feOffset dy="7.298"/><feGaussianBlur stdDeviation="3.649"/><feColorMatrix values="0 0 0 0 0 0 0 0 0 0 0 0 0 0 0 0 0 0 0.25 0"/><feBlend in2="BackgroundImageFix" result="effect1_dropShadow"/><feBlend in="SourceGraphic" in2="effect1_dropShadow" result="shape"/></filter></defs></svg>